<svg xmlns="http://www.w3.org/2000/svg" width="500" height="500" viewBox="0 0 500 500" version="1.1"><path d="M 225.500 90.448 C 224.950 90.661, 222.877 91.106, 220.894 91.436 C 215.918 92.265, 208.496 97.409, 205.127 102.365 C 203.581 104.639, 200.689 111.225, 198.701 117 C 196.713 122.775, 192.322 135.375, 188.945 145 C 185.567 154.625, 180.856 168.125, 178.476 175 C 176.095 181.875, 171.148 196.050, 167.482 206.500 C 163.816 216.950, 160.411 226.871, 159.917 228.546 C 158.471 233.449, 157.069 234.486, 145.929 238.894 C 117.757 250.040, 94.593 264.847, 87.195 276.438 C 85.188 279.582, 84.591 281.823, 84.551 286.356 C 84.501 292.150, 84.555 292.263, 89.656 296.956 C 95.853 302.656, 104.013 305.930, 120.200 309.210 C 130.671 311.332, 133.958 311.497, 165 311.462 C 196.971 311.426, 207.544 310.765, 230.500 307.364 C 232.700 307.038, 234.260 307.025, 233.967 307.336 C 233.101 308.252, 199.563 314.738, 184.455 316.911 C 169.559 319.053, 155.113 320.503, 137.750 321.596 C 131.837 321.968, 127 322.374, 127 322.498 C 127 322.621, 124.015 331.222, 120.367 341.611 C 114.893 357.199, 113.721 361.648, 113.661 367.069 C 113.500 381.611, 124.550 393.945, 139.176 395.549 C 143.005 395.969, 148.992 395.259, 160.500 393.023 C 169.300 391.314, 178.750 389.502, 181.500 388.999 C 184.250 388.495, 198.425 385.800, 213 383.010 C 227.575 380.219, 253.450 375.278, 270.500 372.031 C 347.186 357.422, 366.861 353.678, 386.988 349.861 C 410.329 345.435, 414.786 343.875, 420.238 338.223 C 426.480 331.751, 428.507 326.635, 428.448 317.500 C 428.376 306.451, 426.219 302.743, 408.383 283 C 406.644 281.075, 401.800 275.487, 397.618 270.583 L 390.015 261.665 396.758 257.669 C 432.435 236.522, 435.193 217.114, 404 206.715 C 392.174 202.772, 369.841 200.026, 349.076 199.961 L 336.500 199.922 315.731 175.711 C 251.404 100.724, 247.786 96.705, 242 93.804 C 237.010 91.303, 228.011 89.473, 225.500 90.448 M 346.188 210.750 C 354.893 220.921, 375.529 244.809, 376.544 245.889 C 377.648 247.063, 378.828 246.620, 384.175 243.018 C 399.428 232.743, 403.351 225.505, 397.072 219.226 C 391.298 213.452, 372.629 209.012, 354.095 209.004 C 345.234 209, 344.777 209.101, 346.188 210.750 M 137.228 252.549 C 124.776 258.723, 120.828 261.229, 115.562 266.299 C 101.487 279.850, 106.827 287.231, 134.500 292.480 L 137.500 293.049 141.663 280.775 C 143.953 274.024, 147.666 263.340, 149.913 257.034 C 152.161 250.727, 154 245.440, 154 245.284 C 154 244.419, 151.039 245.702, 137.228 252.549" stroke="none" fill="#fff" fill-rule="evenodd"/></svg>